M48
; DRILL file {KiCad 8.0.1} date 2024-04-17T22:19:04+0900
; FORMAT={3:3/ absolute / metric / keep zeros}
; #@! TF.CreationDate,2024-04-17T22:19:04+09:00
; #@! TF.GenerationSoftware,Kicad,Pcbnew,8.0.1
; #@! TF.FileFunction,MixedPlating,1,2
FMAT,2
METRIC
; #@! TA.AperFunction,Plated,PTH,ComponentDrill
T1C0.800
; #@! TA.AperFunction,Plated,PTH,ComponentDrill
T2C0.950
; #@! TA.AperFunction,Plated,PTH,ComponentDrill
T3C1.020
; #@! TA.AperFunction,Plated,PTH,ComponentDrill
T4C1.100
%
G90
G05
T1
X159385Y-140375
X159385Y-142875
X163830Y-137795
X163830Y-140335
X163830Y-142875
X163830Y-145415
X165100Y-132715
X171450Y-137795
X171450Y-140335
X171450Y-142875
X171450Y-145415
X172720Y-132715
X174665Y-145415
X177165Y-145415
X177800Y-057785
X177800Y-065405
X182245Y-086995
X182245Y-094615
X191770Y-091440
X191770Y-099060
X198745Y-095250
X198745Y-097790
X198745Y-100330
X198745Y-102870
X200660Y-090170
X203160Y-090170
X205740Y-055880
X205740Y-060960
X206365Y-095250
X206365Y-097790
X206365Y-100330
X206365Y-102870
X210820Y-096520
X210820Y-099020
X213360Y-055880
X213360Y-060960
T2
X182245Y-143510
X183555Y-059690
X184745Y-143510
X186055Y-059690
X186690Y-120015
X187245Y-143510
X189190Y-120015
X189745Y-143510
X193160Y-059690
X195660Y-059690
X198160Y-059690
X200660Y-059690
X200720Y-120015
X203200Y-143510
X203220Y-120015
X205700Y-143510
X205720Y-120015
X208200Y-143510
X208220Y-120015
X209550Y-067310
X209550Y-069810
X209550Y-072310
X209550Y-074810
T3
X172085Y-070485
X172085Y-073025
X172085Y-075565
X172085Y-078105
X172085Y-080645
X172085Y-083185
X172085Y-085725
X172085Y-088265
X172085Y-093345
X172085Y-095885
X172085Y-098425
X172085Y-100965
X172085Y-103505
X172085Y-106045
X172085Y-108585
X172085Y-111125
X172085Y-113665
X172085Y-116205
X172085Y-118745
X172085Y-121285
X172085Y-123825
X172085Y-126365
X172085Y-128905
X174625Y-070485
X174625Y-073025
X174625Y-075565
X174625Y-078105
X174625Y-080645
X174625Y-083185
X174625Y-085725
X174625Y-088265
X174625Y-093345
X174625Y-095885
X174625Y-098425
X174625Y-100965
X174625Y-103505
X174625Y-106045
X174625Y-108585
X174625Y-111125
X174625Y-113665
X174625Y-116205
X174625Y-118745
X174625Y-121285
X174625Y-123825
X174625Y-126365
X174625Y-128905
X217805Y-061341
X217805Y-063881
X217805Y-066421
X217805Y-068961
X217805Y-071501
X217805Y-074041
X217805Y-076581
X217805Y-079121
X217805Y-081661
X217805Y-084201
X217805Y-088265
X217805Y-090805
X217805Y-093345
X217805Y-095885
X217805Y-098425
X217805Y-100965
X217805Y-103505
X217805Y-106045
X217805Y-108585
X217805Y-111125
X217805Y-113665
X217805Y-116205
X217805Y-118745
X217805Y-121285
X217805Y-123825
X217805Y-126365
X217805Y-128905
X220345Y-061341
X220345Y-063881
X220345Y-066421
X220345Y-068961
X220345Y-071501
X220345Y-074041
X220345Y-076581
X220345Y-079121
X220345Y-081661
X220345Y-084201
X220345Y-088265
X220345Y-090805
X220345Y-093345
X220345Y-095885
X220345Y-098425
X220345Y-100965
X220345Y-103505
X220345Y-106045
X220345Y-108585
X220345Y-111125
X220345Y-113665
X220345Y-116205
X220345Y-118745
X220345Y-121285
X220345Y-123825
X220345Y-126365
X220345Y-128905
T4
X180412Y-071120
X180412Y-077620
X184912Y-071120
X184912Y-077620
M30
