%TF.GenerationSoftware,KiCad,Pcbnew,8.0.1*%
%TF.CreationDate,2024-04-18T08:39:36+09:00*%
%TF.ProjectId,F767ZI_header,46373637-5a49-45f6-9865-616465722e6b,rev?*%
%TF.SameCoordinates,Original*%
%TF.FileFunction,Soldermask,Top*%
%TF.FilePolarity,Negative*%
%FSLAX46Y46*%
G04 Gerber Fmt 4.6, Leading zero omitted, Abs format (unit mm)*
G04 Created by KiCad (PCBNEW 8.0.1) date 2024-04-18 08:39:36*
%MOMM*%
%LPD*%
G01*
G04 APERTURE LIST*
G04 Aperture macros list*
%AMRoundRect*
0 Rectangle with rounded corners*
0 $1 Rounding radius*
0 $2 $3 $4 $5 $6 $7 $8 $9 X,Y pos of 4 corners*
0 Add a 4 corners polygon primitive as box body*
4,1,4,$2,$3,$4,$5,$6,$7,$8,$9,$2,$3,0*
0 Add four circle primitives for the rounded corners*
1,1,$1+$1,$2,$3*
1,1,$1+$1,$4,$5*
1,1,$1+$1,$6,$7*
1,1,$1+$1,$8,$9*
0 Add four rect primitives between the rounded corners*
20,1,$1+$1,$2,$3,$4,$5,0*
20,1,$1+$1,$4,$5,$6,$7,0*
20,1,$1+$1,$6,$7,$8,$9,0*
20,1,$1+$1,$8,$9,$2,$3,0*%
G04 Aperture macros list end*
%ADD10RoundRect,0.102000X-1.765000X-0.765000X1.765000X-0.765000X1.765000X0.765000X-1.765000X0.765000X0*%
%ADD11O,3.734000X1.734000*%
%ADD12O,1.600000X1.600000*%
%ADD13R,1.600000X1.600000*%
%ADD14C,1.600000*%
%ADD15RoundRect,0.250000X0.600000X0.725000X-0.600000X0.725000X-0.600000X-0.725000X0.600000X-0.725000X0*%
%ADD16O,1.700000X1.950000*%
%ADD17C,2.000000*%
%ADD18O,1.950000X1.700000*%
%ADD19RoundRect,0.250000X0.725000X-0.600000X0.725000X0.600000X-0.725000X0.600000X-0.725000X-0.600000X0*%
%ADD20RoundRect,0.250000X-0.600000X-0.725000X0.600000X-0.725000X0.600000X0.725000X-0.600000X0.725000X0*%
G04 APERTURE END LIST*
D10*
%TO.C,A1*%
X216805000Y-61341000D03*
D11*
X221345000Y-61341000D03*
X216805000Y-63881000D03*
X221345000Y-63881000D03*
X216805000Y-66421000D03*
X221345000Y-66421000D03*
X216805000Y-68961000D03*
X221345000Y-68961000D03*
X216805000Y-71501000D03*
X221345000Y-71501000D03*
X216805000Y-74041000D03*
X221345000Y-74041000D03*
X216805000Y-76581000D03*
X221345000Y-76581000D03*
X216805000Y-79121000D03*
X221345000Y-79121000D03*
X216805000Y-81661000D03*
X221345000Y-81661000D03*
X216805000Y-84201000D03*
X221345000Y-84201000D03*
D10*
X171085000Y-70485000D03*
D11*
X175625000Y-70485000D03*
X171085000Y-73025000D03*
X175625000Y-73025000D03*
X171085000Y-75565000D03*
X175625000Y-75565000D03*
X171085000Y-78105000D03*
X175625000Y-78105000D03*
X171085000Y-80645000D03*
X175625000Y-80645000D03*
X171085000Y-83185000D03*
X175625000Y-83185000D03*
X171085000Y-85725000D03*
X175625000Y-85725000D03*
X171085000Y-88265000D03*
X175625000Y-88265000D03*
D10*
X171085000Y-93345000D03*
D11*
X175625000Y-93345000D03*
X171085000Y-95885000D03*
X175625000Y-95885000D03*
X171085000Y-98425000D03*
X175625000Y-98425000D03*
X171085000Y-100965000D03*
X175625000Y-100965000D03*
X171085000Y-103505000D03*
X175625000Y-103505000D03*
X171085000Y-106045000D03*
X175625000Y-106045000D03*
X171085000Y-108585000D03*
X175625000Y-108585000D03*
X171085000Y-111125000D03*
X175625000Y-111125000D03*
X171085000Y-113665000D03*
X175625000Y-113665000D03*
X171085000Y-116205000D03*
X175625000Y-116205000D03*
X171085000Y-118745000D03*
X175625000Y-118745000D03*
X171085000Y-121285000D03*
X175625000Y-121285000D03*
X171085000Y-123825000D03*
X175625000Y-123825000D03*
X171085000Y-126365000D03*
X175625000Y-126365000D03*
X171085000Y-128905000D03*
X175625000Y-128905000D03*
D10*
X216805000Y-88265000D03*
D11*
X221345000Y-88265000D03*
X216805000Y-90805000D03*
X221345000Y-90805000D03*
X216805000Y-93345000D03*
X221345000Y-93345000D03*
X216805000Y-95885000D03*
X221345000Y-95885000D03*
X216805000Y-98425000D03*
X221345000Y-98425000D03*
X216805000Y-100965000D03*
X221345000Y-100965000D03*
X216805000Y-103505000D03*
X221345000Y-103505000D03*
X216805000Y-106045000D03*
X221345000Y-106045000D03*
X216805000Y-108585000D03*
X221345000Y-108585000D03*
X216805000Y-111125000D03*
X221345000Y-111125000D03*
X216805000Y-113665000D03*
X221345000Y-113665000D03*
X216805000Y-116205000D03*
X221345000Y-116205000D03*
X216805000Y-118745000D03*
X221345000Y-118745000D03*
X216805000Y-121285000D03*
X221345000Y-121285000D03*
X216805000Y-123825000D03*
X221345000Y-123825000D03*
X216805000Y-126365000D03*
X221345000Y-126365000D03*
X216805000Y-128905000D03*
X221345000Y-128905000D03*
%TD*%
D12*
%TO.C,U1*%
X192405000Y-117475000D03*
X192405000Y-120015000D03*
X192405000Y-122555000D03*
X192405000Y-125095000D03*
X184785000Y-125095000D03*
X184785000Y-122555000D03*
X184785000Y-120015000D03*
D13*
X184785000Y-117475000D03*
%TD*%
D14*
%TO.C,C1*%
X210820000Y-88285000D03*
X210820000Y-90785000D03*
%TD*%
%TO.C,C4*%
X197485000Y-123150000D03*
X197485000Y-120650000D03*
%TD*%
D15*
%TO.C,J5*%
X207645000Y-118745000D03*
D16*
X205145000Y-118745000D03*
X202645000Y-118745000D03*
%TD*%
D14*
%TO.C,R8*%
X205740000Y-55880000D03*
D12*
X213360000Y-55880000D03*
%TD*%
D17*
%TO.C,SW1*%
X184912000Y-71120000D03*
X184912000Y-77620000D03*
X180412000Y-71120000D03*
X180412000Y-77620000D03*
%TD*%
D12*
%TO.C,R6*%
X187325000Y-109855000D03*
D14*
X194945000Y-109855000D03*
%TD*%
%TO.C,C3*%
X180975000Y-120035000D03*
X180975000Y-122535000D03*
%TD*%
%TO.C,R1*%
X175260000Y-57785000D03*
D12*
X175260000Y-65405000D03*
%TD*%
D14*
%TO.C,C2*%
X200660000Y-82550000D03*
X203160000Y-82550000D03*
%TD*%
D15*
%TO.C,J9*%
X184150000Y-59690000D03*
D16*
X181650000Y-59690000D03*
%TD*%
D18*
%TO.C,J7*%
X206375000Y-67310000D03*
X206375000Y-69810000D03*
X206375000Y-72310000D03*
D19*
X206375000Y-74810000D03*
%TD*%
D16*
%TO.C,J2*%
X184905000Y-131445000D03*
X187405000Y-131445000D03*
X189905000Y-131445000D03*
D15*
X192405000Y-131445000D03*
%TD*%
D20*
%TO.C,J6*%
X184785000Y-102235000D03*
D16*
X187285000Y-102235000D03*
%TD*%
D13*
%TO.C,U2*%
X206365000Y-93345000D03*
D12*
X206365000Y-90805000D03*
X206365000Y-88265000D03*
X206365000Y-85725000D03*
X198745000Y-85725000D03*
X198745000Y-88265000D03*
X198745000Y-90805000D03*
X198745000Y-93345000D03*
%TD*%
D15*
%TO.C,J4*%
X199390000Y-59690000D03*
D16*
X196890000Y-59690000D03*
X194390000Y-59690000D03*
X191890000Y-59690000D03*
%TD*%
D14*
%TO.C,R4*%
X182245000Y-86995000D03*
D12*
X182245000Y-94615000D03*
%TD*%
D14*
%TO.C,R7*%
X205740000Y-60960000D03*
D12*
X213360000Y-60960000D03*
%TD*%
%TO.C,R5*%
X194310000Y-81280000D03*
D14*
X194310000Y-88900000D03*
%TD*%
D19*
%TO.C,J3*%
X206375000Y-108585000D03*
D18*
X206375000Y-106085000D03*
X206375000Y-103585000D03*
X206375000Y-101085000D03*
%TD*%
M02*
